<?xml version="1.0" encoding="UTF-8" standalone="no"?>
<svg
   version="1.0"
   width="432.75854pt"
   height="742.63232pt"
   viewBox="0 0 432.75855 742.63232"
   preserveAspectRatio="xMidYMid"
   id="svg2"
   sodipodi:docname="ChatGPT-Image-Apr-23_-2025_-11_14_14-PM.svg"
   xmlns:inkscape="http://www.inkscape.org/namespaces/inkscape"
   xmlns:sodipodi="http://sodipodi.sourceforge.net/DTD/sodipodi-0.dtd"
   xmlns="http://www.w3.org/2000/svg"
   xmlns:svg="http://www.w3.org/2000/svg">
  <defs
     id="defs2" />
  <sodipodi:namedview
     id="namedview2"
     pagecolor="#ffffff"
     bordercolor="#000000"
     borderopacity="0.25"
     inkscape:showpageshadow="2"
     inkscape:pageopacity="0.0"
     inkscape:pagecheckerboard="0"
     inkscape:deskcolor="#d1d1d1"
     inkscape:document-units="pt">
    <inkscape:page
       x="-1.3164014e-13"
       y="0"
       width="432.75858"
       height="742.63232"
       id="page2"
       margin="0"
       bleed="0" />
  </sodipodi:namedview>
  <path
     d="m 154.49131,1.2261102 c -4.8,0.6 -8.89999,1.4 -9.3,1.8 -0.29999,0.3 0.90001,1.6 2.70001,2.9 5.89999,4 19.7,14.3000008 19.5,14.5000008 -0.10001,0.1 -4.90001,-0.4 -10.70001,-1.2 -26.59999,-3.5 -54.5,0.5 -79.699998,11.4 -8.3,3.6 -22.7,12.1 -21.8,13 0.2,0.2 7,0.8 15.20001,1.2 14.2,0.8 21.29999,2.2 21.29999,4.1 0,0.5 -0.7,0.9 -1.59999,0.9 -2.30001,0 -15.80001,4.1 -16.40001,4.9 -0.29999,0.4 -3.09999,1.8 -6.4,3.1 -24.1,9.7 -50.09999,34.2 -60.5999903,57.199999 -3.20001,7.3 -6.20000502,16.8 -5.200005,16.8 0.4,0 5.400005,-1.5 11.2000053,-3.4 10.6,-3.4 18.99999,-5.2 18.99999,-4.2 0,0.3 -1.49999,2.9 -3.39999,5.8 -12.2,19.2 -20.6000003,45 -20.6000003,63.6 v 5.3 l 3.7000003,-3 c 3.8,-3 15.5,-9.2 16.1,-8.6 0.2,0.2 -0.7,4.3 -2,9.2 -2.1,8.2 -2.3,10.7 -2.3,35.3 0,21.1 0.4,28.4 1.8,36 2.8,14.6 5.69999,25.4 7.19999,26.5 0.7,0.6 1.7,2.8 2,4.9 l 0.8,3.8 -3.1,-1.6 c -3.79999,-2 -11.19999,-2.1 -15.49999,-0.2 -10.2000003,4.4 -17.7000053,24 -16.20000532,43.1 1.30000002,17.9 5.70000502,38.7 11.20000532,53.5 8.4,22.4 23.7,44.2 36.2,51.5 3.89999,2.3 5.09999,3.6 5.09999,5.5 0,4 4.7,21.3 8.6,31.8 4.7,12.6 12.9,28.3 21.2,40.2 l 6.5,9.5 1,16 c 1,18.8 0.3,43.1 -1.7,53 -4.3,21.2 -13.6,36.3 -27.19999,44.1 -9.20001,5.2 -11.40001,7.2 -11.40001,10.6 0,3.9 5.40001,11 15.8,21 42.299998,40.2 89.900008,59.7 150.299998,61.5 50.30001,1.5 96.2,-12.9 135.80001,-42.5 12.69999,-9.5 28.69999,-24.4 35.09999,-32.7 5.90001,-7.7 5.40001,-9.9 -3,-14.5 -10.09999,-5.5 -19.9,-15.8 -24.79999,-26 -6.8,-14.2 -7.40001,-18.6 -7.90001,-59.6 l -0.5,-36 5.7,-8.7 c 11.8,-18.1 21.8,-42 26.1,-62.3 1.5,-7.1 2,-8.2 4.4,-9.3 4.6,-2 12,-9.1 18,-17.2 18.1,-24.4 31.70001,-72.9 27.20001,-96.9 -3.60001,-19.2 -12.9,-30 -25.90001,-30 -3.09999,0 -5.3,-0.4 -5.3,-1.1 0,-0.6 1.1,-8.8 2.5,-18.2 7.3,-50.8 10.1,-90.8 7.6,-111.4 -2.39999,-19.7 -9.19999,-38.7 -18.89999,-52.9 -7.8,-11.6 -21.5,-22.4 -31.40001,-24.899999 -2.3,-0.6 -2.59999,-1.3 -3.2,-6.5 -2.69999,-23.3 -16.1,-44.5 -37.69999,-59.7 -5.30001,-3.7 -28.7,-16.3 -30.30001,-16.3 -0.89999,0 2.10001,7.6 5.30001,13.6 1.69999,3.2 2.89999,6 2.69999,6.2 -0.19999,0.1 -4.1,-2.1 -8.69999,-5.1 -23,-14.9 -52.10001,-25.5000008 -80.60001,-29.2000008 -13.3,-1.7 -40.7,-1.8 -53.5,-0.1 z M 335.39132,171.92611 c 19.29999,15 33.89999,41.3 40.29999,72.8 3.8,18.8 5.1,36 5.70001,78 0.39999,26.5 0.89999,39.7 1.59999,38.6 0.5,-1 3.5,-8.7 6.7,-17.2 3.20001,-8.4 6.5,-16.4 7.3,-17.7 2.40001,-3.5 8.40001,-6.1 11.3,-4.7 9.5,4.3 12.20001,31.1 5.5,55.8 -6.39999,23.9 -14.19999,40.6 -23.8,51.3 -5,5.6 -12.5,11 -15.3,11 -1.9,0 -3.09999,3.3 -5.9,17.1 -5.1,24.6 -18.5,51.5 -37.5,75.4 -8.19999,10.3 -26.69999,28.6 -38.1,37.8 -51.2,41.3 -87.09999,43.9 -136.5,9.9 -26.29999,-18.1 -47.2,-39.1 -64.099988,-64.2 -13.80001,-20.6 -23,-42.8 -26.60001,-64.3 l -1.8,-10.9 -6,-2.7 c -18.59999,-8.6 -39.09999,-48.8 -43.59999,-86 -2.1,-17.6 1.6,-33.5 8.7,-36.8 6.3,-3.1 8.59999,0.2 23.09999,34.3 3.1,7.4 5.8,13.2 6,13 0.20001,-0.2 0.8,-15.6 1.3,-34.2 1.3,-46.4 4.3,-69.8 12.5,-98.5 5.90001,-20.5 12.5,-32.1 24.40001,-43.1 7.3,-6.8 15.999998,-11.2 26.299998,-13.3 10.79999,-2.1 16.79999,-1.9 40.5,1.5 31.79999,4.5 43.2,5.3 69.79999,4.7 27,-0.6 51,-3.1 79,-8.2 9.90001,-1.8 19.3,-3.3 20.90001,-3.4 2,-0.1 4.59999,1.2 8.3,4 z m 2.59999,438.9 c 3.8,18.4 9.40001,28.7 23.40001,42.7 l 10.09999,10.3 -8.09999,7.6 c -31.8,29.7 -64.8,45.8 -109,53.4 -13.60001,2.3 -41.8,2.8 -58.50001,0.9 -13.7,-1.4 -32.4,-5.4 -44.99999,-9.5 -14,-4.5 -38.40001,-16.7 -49.40001,-24.6 -10.499998,-7.7 -27.199998,-22.2 -30.099988,-26.2 l -2.10001,-2.9 2.5,-1.5 c 5.30001,-3.3 16.5,-16.1 20.5,-23.3 9.499998,-17.4 11.399998,-26.6 12.100008,-57.7 l 0.5,-24.2 11.2,10.7 c 24.89999,24.2 53.69999,42.4 76.59999,48.4 11.40001,3 40.8,3.4 50.8,0.7 24,-6.7 49.10001,-23 76.2,-49.5 l 15.5,-15.1 0.6,26.1 c 0.4,17.4 1.2,28.7 2.2,33.7 z"
     id="path2"
     style="fill:#000000;stroke:none;stroke-width:0.1" />
</svg>
