<?xml version="1.0" encoding="UTF-8" standalone="no"?>
<svg
   version="1.0"
   width="430.63531pt"
   height="744.64618pt"
   viewBox="0 0 430.63531 744.64618"
   preserveAspectRatio="xMidYMid"
   id="svg2"
   sodipodi:docname="ChatGPT-Image-Apr-23_-2025_-11_14_14-PM.svg"
   xmlns:inkscape="http://www.inkscape.org/namespaces/inkscape"
   xmlns:sodipodi="http://sodipodi.sourceforge.net/DTD/sodipodi-0.dtd"
   xmlns="http://www.w3.org/2000/svg"
   xmlns:svg="http://www.w3.org/2000/svg">
  <defs
     id="defs2" />
  <sodipodi:namedview
     id="namedview2"
     pagecolor="#ffffff"
     bordercolor="#000000"
     borderopacity="0.25"
     inkscape:showpageshadow="2"
     inkscape:pageopacity="0.0"
     inkscape:pagecheckerboard="0"
     inkscape:deskcolor="#d1d1d1"
     inkscape:document-units="pt">
    <inkscape:page
       x="0"
       y="0"
       width="430.63531"
       height="744.64618"
       id="page2"
       margin="0"
       bleed="0" />
  </sodipodi:namedview>
  <path
     d="m 157.93529,0.51166437 c -3.5,0.2 -6.30001,0.70000003 -6.30001,1.10000003 0,0.4 1.90001,1.9 4.30001,3.4 5.5,3.5 19,14.9000006 18.29999,15.5000006 -0.19999,0.3 -4,-0.4 -8.29999,-1.4 -10.6,-2.5 -36.80001,-2.5 -50.30001,0 -21.099986,3.9 -46.499996,13.6 -55.499996,21.2 l -3,2.5 h 6 c 7.40001,0 22.40001,1.7 28.20001,3.2 4.39999,1.1 5.89999,2.8 2.39999,2.8 -4.1,0 -21.29999,5 -28.6,8.4 -21.79999,10.1 -43,29.5 -54.5,49.899995 -3.19999,5.7 -9.29999,21.7 -8.59999,22.5 0.19999,0.2 5.3,-1.2 11.3,-3.1 11,-3.5 19.29999,-5.3 19.29999,-4.3 0,0.3 -1.5,2.9 -3.4,5.8 -12.19999,19.2 -20.6,45 -20.6,63.6 v 5.3 l 3.80001,-3 c 3.69999,-3 15.4,-9.2 16.1,-8.6 0.19999,0.2 -0.80001,4.8 -2.2,10.2 -3.5,13.1 -4.70001,23.1 -4.70001,37.3 0,22.5 3.40001,45.4 9.5,65.1 4.40001,13.9 4.40001,14.4 0.5,12.4 -3.59999,-1.9 -11,-1.9 -15.29999,-0.1 -7.20001,3.1 -12.9,13 -15.39999992,26.9 -2.20001008,12.4 -0.5,30.1 4.89999992,51.2 6.89999,26.7 18.39999,49.2 30.5,59.4 11.39999,9.5 9.89999,5.3 12.29999,34.1 3.5,42.2 5.5,54.4 11.6,70.6 3,8.1 11.5,25.3 14.60001,29.6 2,2.8 2.1,3.8 1.5,16.7 -1.3,29.6 -9.9,46.3 -28.4,55.2 -9.80001,4.7 -11.70001,7.2 -8.80001,11.6 1,1.5 5.90001,6.9 10.90001,12.1 45,46.5 102.799996,69 171.599986,66.9 55.6,-1.7 102.9,-18.8 140.7,-50.9 11.1,-9.4 28.2,-27.4 28.9,-30.5 0.7,-2.8 -1,-7.3 -2.7,-7.3 -2.4,0 -15.7,-9.1 -19.7,-13.4 -8.4,-9.1 -12,-19.9 -12.9,-38.8 l -0.6,-12.7 4.1,-6.3 c 10.3,-15.9 19.7,-40 22.6,-57.8 1.3,-8.4 2.5,-20.7 5.6,-58.4 l 0.9,-10.9 6.4,-6.6 c 21.2,-21.9 35.7,-61.2 35.7,-96.5 0,-22 -4.7,-36.7 -13.4,-42.5 -3.4,-2.2 -5.1,-2.6 -11.4,-2.6 h -7.4 l 0.6,-3.5 c 8.4,-50.3 12.5,-103.8 9.7,-126.5 -4.4,-34.5 -22,-64.8 -43.8,-75.1 l -8.2,-3.9 -1.1,-5.499995 c -2,-10 -5.9,-23 -8.6,-28.3 -6.5,-12.8 -20.2,-27.8 -33.9,-36.9 -7,-4.6 -21,-12 -25.29999,-13.3 -2.10001,-0.6 -2.10001,-0.5 -1.20001,2.1 0.6,1.5 2.6,5.9 4.5,9.8 1.90001,3.9 3.2,7.2 3,7.4 -0.2,0.2 -4.5,-2.4 -9.59999,-5.8 -21.90001,-14.6 -49.7,-24.7000006 -78.7,-28.5000006 -10.4,-1.40000003 -31.3,-1.70000003 -47.9,-0.80000003 z M 334.73528,174.21166 c 18.2,15 30.7,37.3 38.8,69.1 4.8,18.8 7.1,50.8 7.1,97.7 0,15.2 0.4,25.8 0.9,25.8 0.5,0 3.6,-8 6.8,-17.7 5.1,-15.7 6.3,-18.2 9.9,-22 9.1,-9.6 16.1,-2.4 18.3,19 2.6,24.1 -11,68.8 -26.6,88.2 -2.7,3.2 -5.4,6 -6,6.3 -1,0.3 -1.3,-3.8 -1.4,-18 0,-10.1 -0.3,-17.6 -0.6,-16.8 -13,38.8 -22.4,56.1 -39.8,73.5 -7.9,7.9 -21.4,18.4 -25.9,20.1 -1.1,0.4 -2.8,-1.9 -6.6,-9.6 -6.1,-12.1 -11.4,-18.1 -22.5,-25.5 -15.69999,-10.5 -32.59999,-15.2 -51,-14.2 -5.5,0.3 -11.9,1.2 -14.19999,2.1 -3.9,1.4 -4.6,1.4 -8,-0.2 -3,-1.3 -6.80001,-1.7 -17.30001,-1.7 -14.79999,0 -20.19999,1 -32,5.8 -19.4,7.9 -31.5,18.3 -39.59999,34 l -5,9.8 -8.5,-6.3 c -19.300006,-14.3 -35.199996,-33.8 -46.300006,-56.8 -4.69999,-9.9 -6.89999,-16.1 -13.29999,-39 -0.80001,-2.9 -1.1,-1.3 -1.6,10 -0.4,7.4 -1,17.5 -1.4,22.3 l -0.6,8.8 -2.9,-2.8 c -13.20001,-12.6 -27.5,-47.3 -30.9,-75.2 -2.1,-17.1 1.59999,-33.2 8.3,-36.7 6.6,-3.4 11,2 21.39999,25.7 l 7.9,18 0.6,-34.8 c 0.80001,-44.2 2.9,-64.3 9.4,-90.6 7.30001,-28.9 13.6,-41.2 28.6,-55.1 16.300006,-15.1 29.999996,-17.3 67.300006,-11 43.3,7.3 77,7.2 129.09999,-0.2 9.9,-1.4 23,-3.6 29,-4.9 6.1,-1.2 11.2,-2.3 11.6,-2.4 0.3,-0.1 3.4,2.3 7,5.3 z m -92.6,318.6 c 25.6,4.4 42.20001,12.5 46.80001,22.9 5.59999,12.6 -0.20001,22.8 -17,29.7 -6.30001,2.6 -11.6,3 -16,1.3 -3.6,-1.3 -9.80001,-7.4 -11.4,-11 l -1.1,-2.9 -19.20001,0.2 c -10.5,0.1 -21.89999,-0.2 -25.29999,-0.6 l -6.20001,-0.8 -2.5,5 c -5.69999,11.2 -16.29999,14 -29.1,7.7 -14.09999,-6.9 -19.5,-17.3 -14.59999,-28 4.8,-10.7 21.19999,-18.4 50.59999,-23.6 13.70001,-2.4 30.5,-2.4 45,0.1 z m -117.5,144.4 c 36.6,29.1 71.40001,39.6 113,34.1 6.20001,-0.8 14.1,-2.3 17.40001,-3.2 23.3,-6.4 49.09999,-23 74.79999,-48.1 10.6,-10.4 10.7,-10.5 11.2,-7.6 4.5,23.4 11.2,36.1 24.6,46.9 l 6.1,4.9 -6.3,6.4 c -29.1,29.5 -65,47.6 -110.3,55.3 -15.19999,2.7 -53.09999,3.7 -68.59999,2 -15.2,-1.8 -33.7,-5.7 -47.40001,-10.2 -27.5,-9 -56.999996,-27.3 -75.999996,-46.9 -4.59999,-4.8 -4.9,-5.3 -3.09999,-6.3 16.3,-10.1 27.9,-30.6 30.19999,-53.3 l 0.60001,-6.1 12.699996,12.7 c 6.9,6.9 16.4,15.7 21.09999,19.4 z"
     id="path1"
     style="fill:#000000;stroke:none;stroke-width:0.1" />
</svg>
